<?xml version="1.0" encoding="UTF-8"?>
<svg id="Capa_2" data-name="Capa 2" xmlns="http://www.w3.org/2000/svg" viewBox="0 0 60.75 56">
  <g id="Layer_1" data-name="Layer 1">
    <path d="m33.19,21c1.59,0,2.75,1.51,2.31,3.03l-5.39,18.96c-.29,1.03-1.24,1.74-2.32,1.74-1.59,0-2.75-1.51-2.31-3.03l5.39-18.96c.29-1.03,1.24-1.74,2.32-1.74Zm-18.31,11.37l5.87-4.92c1-.84,1.14-2.34.29-3.34-.84-1-2.34-1.14-3.34-.29l-5.88,4.93s0,0-.01,0c-1.25,1.06-1.96,2.6-1.96,4.24s.71,3.18,1.96,4.24c0,0,0,0,.01,0l5.88,4.93c.44.37.99.55,1.52.55.68,0,1.35-.29,1.82-.85.84-1,.71-2.5-.29-3.34l-5.87-4.92c-.25-.21-.28-.48-.28-.62s.04-.41.28-.62Zm30.86,1.24l-5.76,4.93c-1,.85-1.11,2.35-.26,3.35.47.55,1.13.83,1.8.83.55,0,1.09-.19,1.54-.57l5.75-4.92c1.25-1.06,1.96-2.6,1.96-4.24s-.71-3.18-1.95-4.23l-5.76-4.93c-1-.85-2.49-.74-3.35.26-.85,1-.74,2.49.26,3.35l5.76,4.93c.25.21.29.48.29.62s-.04.41-.29.63Zm15.01-26.49v27.53c0,1.31-1.06,2.37-2.37,2.37s-2.37-1.06-2.37-2.37V14.36H4.75v32.15c0,2.62,2.13,4.75,4.75,4.75h41.76c2.62,0,4.75-2.13,4.75-4.75,0-1.31,1.06-2.37,2.37-2.37s2.37,1.06,2.37,2.37c0,5.23-4.26,9.49-9.49,9.49H9.49c-5.23,0-9.49-4.26-9.49-9.49V7.12C0,3.19,3.19,0,7.12,0h46.51c3.93,0,7.12,3.19,7.12,7.12Zm-19.1,0c0,1.31,1.06,2.37,2.37,2.37s2.37-1.06,2.37-2.37-1.06-2.37-2.37-2.37-2.37,1.06-2.37,2.37Zm11.86-2.37c-1.31,0-2.37,1.06-2.37,2.37s1.06,2.37,2.37,2.37,2.37-1.06,2.37-2.37-1.06-2.37-2.37-2.37ZM4.75,9.61h32.6c-.29-.78-.45-1.62-.45-2.49s.14-1.63.41-2.37H7.12c-1.31,0-2.37,1.06-2.37,2.37v2.49Z"/>
  </g>
</svg>