<?xml version="1.0" encoding="UTF-8"?>
<svg id="Capa_2" data-name="Capa 2" xmlns="http://www.w3.org/2000/svg" viewBox="0 0 64.84 48.47">
  <g id="Layer_1" data-name="Layer 1">
    <g>
      <path d="m24.23,0h16.37c.52,0,.95.42.95.95v12.59c0,.52-.42.94-.94.94h-16.37c-.52,0-.94-.42-.94-.94V.94c0-.52.42-.94.94-.94Z"/>
      <path d="m47.53,33.99h16.37c.52,0,.95.42.95.95v12.59c0,.52-.42.95-.95.95h-16.37c-.52,0-.94-.42-.94-.94v-12.59c0-.52.42-.95.95-.95Z"/>
      <path d="m24.24,33.99h16.37c.52,0,.95.42.95.95v12.59c0,.52-.42.95-.95.95h-16.37c-.52,0-.94-.42-.94-.94v-12.59c0-.52.42-.95.95-.95Z"/>
      <path d="m.95,33.99h16.37c.52,0,.94.42.94.94v12.59c0,.52-.42.95-.95.95H.94c-.52,0-.94-.42-.94-.94v-12.59c0-.52.42-.95.95-.95Z"/>
      <path d="m57.69,23.13c0-.52-.42-.95-.94-.95h-22.44v-5.19c0-.52-.42-.95-.94-.95h-1.89c-.52,0-.94.42-.94.95v5.19H8.03c-.52,0-.94.42-.94.95v.34s-.02.07-.02.11v7.57c0,.52.42.94.95.94h1.89c.52,0,.94-.42.94-.94v-5.19h19.69v5.19c0,.52.42.94.94.94h1.89c.52,0,.94-.42.94-.94v-5.19h19.61v5.37c0,.52.42.94.95.94h1.89c.52,0,.94-.42.94-.94v-7.93s0-.02,0-.03v-.24Z"/>
    </g>
  </g>
</svg>