<?xml version="1.0" encoding="UTF-8"?>
<svg id="Capa_2" data-name="Capa 2" xmlns="http://www.w3.org/2000/svg" viewBox="0 0 228 228">
  <g id="Capa_1-2" data-name="Capa 1">
    <g>
      <path d="m133.39,69.54c.15-.02.29-.03.44-.03l14.76-.03v-21.21h-.04c-7.35-1.19-20.27-.91-20.27-.91-15.72-.35-28.47,12.75-28.47,28.47v20.31h-20.42v23.69h20.42v60.82h24.44v-60.82h20.36l3.14-23.69h-23.5l.13-17.34c.06-4.97,3.07-8.52,9.02-9.27Z"/>
      <path d="m114,0C51.03,0,0,51.03,0,114c0,49.14,31.08,91.05,74.72,107.03,12.25,4.51,25.46,6.97,39.28,6.97s27.04-2.46,39.28-6.97c43.64-15.98,74.72-57.89,74.72-107.03C228,51.03,176.97,0,114,0Zm12.21,221.03c-4.01.46-8.09.69-12.21.69s-8.2-.23-12.21-.69C48.03,214.98,6.28,169.38,6.28,114,6.28,54.5,54.5,6.28,114,6.28s107.72,48.22,107.72,107.72c0,55.38-41.75,100.98-95.51,107.03Z"/>
    </g>
  </g>
</svg>