<?xml version="1.0" encoding="UTF-8"?>
<svg id="Capa_2" data-name="Capa 2" xmlns="http://www.w3.org/2000/svg" viewBox="0 0 109.91 109.91">
  <defs>
    <style>
      .cls-1 {
        fill-rule: evenodd;
      }
    </style>
  </defs>
  <g id="Layer_1" data-name="Layer 1">
    <path class="cls-1" d="m85.75,42.3c0-5.15-1.73-9.36-4.59-12.65.46-1.19,1.99-5.99-.44-12.48,0,0-3.75-1.27-12.29,4.83-3.57-1.05-7.39-1.57-11.19-1.59-3.8.02-7.62.54-11.19,1.59-8.54-6.1-12.29-4.83-12.29-4.83-2.44,6.49-.9,11.28-.44,12.48-2.86,3.3-4.6,7.51-4.6,12.65,0,18.07,10.44,22.11,20.36,23.3,0,0-7.13,4.42-7.13,11.85-2.55,1.21-13.32,4.91-17.31-2.3,0,0-2.36-4.53-6.85-4.86,0,0-4.37-.06-.31,2.87,0,0,2.93,1.45,4.96,6.9,0,0,2.26,11.47,19.36,6.32.17.09.06,5.55.06,6.67h30.76s.05-10.96.05-14.45c0-8.57-5.72-11.58-7.33-13.03,9.96-1.17,20.41-5.15,20.41-23.27"/>
    <path d="m54.96,0C24.62,0,0,24.6,0,54.96c0,23.69,15,43.89,36.02,51.6,5.9,2.17,12.27,3.36,18.94,3.36s13.05-1.19,18.96-3.36c21.02-7.71,36-27.91,36-51.6C109.91,24.6,85.31,0,54.96,0Zm5.89,106.55c-1.93.22-3.9.33-5.89.33s-3.95-.11-5.89-.33C23.17,103.64,3.03,81.66,3.03,54.96,3.03,26.27,26.29,3.03,54.96,3.03s51.95,23.25,51.95,51.93c0,26.7-20.14,48.68-46.06,51.6Z"/>
  </g>
</svg>