<?xml version="1.0" encoding="UTF-8"?>
<svg id="Capa_2" data-name="Capa 2" xmlns="http://www.w3.org/2000/svg" viewBox="0 0 221 221">
  <g id="Capa_1-2" data-name="Capa 1">
    <g>
      <g>
        <circle cx="143" cy="77.92" r="7.34"/>
        <path d="m110.5,79.11c-17.32,0-31.4,14.04-31.4,31.4s14.07,31.4,31.4,31.4,31.43-14.04,31.43-31.4-14.07-31.4-31.43-31.4Zm0,51.89c-11.31,0-20.49-9.18-20.49-20.49s9.18-20.49,20.49-20.49,20.5,9.18,20.5,20.49-9.15,20.49-20.5,20.49Z"/>
        <path d="m137.08,49.76h-53.12c-19.04,0-34.12,15.42-34.12,34.46l.07,53.16c0,19.08,15.08,33.86,34.12,33.86h53.16c19.04,0,33.9-14.71,33.9-33.75l.11-53.27c-.56-19.94-15.08-34.46-34.12-34.46Zm23.41,83.58c0,16.13-7.21,26.95-27.4,27.14l-44.98.19c-20.64-.26-27.51-11.27-27.51-27.4l.07-45.02c0-20.94,11.46-27.55,27.36-27.81h44.98c16.09,0,26.73,6.27,27.55,27.81l-.07,45.1Z"/>
      </g>
      <path d="m110.5,0C49.5,0,0,49.46,0,110.5c0,47.63,30.16,88.25,72.42,103.74,11.87,4.37,24.68,6.76,38.08,6.76s26.24-2.39,38.12-6.76c42.26-15.49,72.38-56.11,72.38-103.74C221,49.46,171.54,0,110.5,0Zm11.83,214.24c-3.88.45-7.84.67-11.83.67s-7.95-.22-11.83-.67C46.59,208.38,6.08,164.18,6.08,110.5,6.08,52.82,52.86,6.09,110.5,6.09s104.45,46.74,104.45,104.42c0,53.68-40.5,97.88-92.62,103.74Z"/>
    </g>
  </g>
</svg>