<?xml version="1.0" encoding="UTF-8"?>
<svg id="Capa_2" data-name="Capa 2" xmlns="http://www.w3.org/2000/svg" viewBox="0 0 221 221">
  <g id="Capa_1-2" data-name="Capa 1">
    <g>
      <path d="m48.53,89.26v81.98h27.25v-81.98h-27.25Zm13.81-39.5c-9.33,0-15.42,6.12-15.42,14.19s5.9,14.15,15.08,14.15h.15c9.52,0,15.42-6.31,15.42-14.15-.15-8.06-5.9-14.19-15.23-14.19Zm80.37,37.59c-14.48,0-20.94,7.95-24.56,13.55v.26h-.19c.04-.11.11-.19.19-.26v-11.65h-27.29c.37,7.69,0,81.98,0,81.98h27.29v-45.77c0-2.46.15-4.89.9-6.65,1.98-4.89,6.46-9.97,13.96-9.97,9.89,0,13.81,7.5,13.81,18.52v43.86h27.29v-47c0-25.16-13.48-36.88-31.4-36.88Z"/>
      <path d="m110.5,0C49.46,0,0,49.46,0,110.5c0,47.63,30.13,88.25,72.42,103.74,11.87,4.37,24.68,6.76,38.08,6.76s26.21-2.39,38.08-6.76c42.3-15.49,72.42-56.11,72.42-103.74C221,49.46,171.54,0,110.5,0Zm11.83,214.24c-3.88.45-7.84.67-11.83.67s-7.95-.22-11.83-.67C46.55,208.38,6.09,164.18,6.09,110.5,6.09,52.82,52.82,6.09,110.5,6.09s104.42,46.74,104.42,104.42c0,53.68-40.47,97.88-92.58,103.74Z"/>
    </g>
  </g>
</svg>