<?xml version="1.0" encoding="UTF-8"?>
<svg id="Capa_2" data-name="Capa 2" xmlns="http://www.w3.org/2000/svg" viewBox="0 0 228.31 221.05">
  <g id="Capa_1-2" data-name="Capa 1">
    <g>
      <path d="m115.26,0C52.43-.52.83,48.44,0,109.34c-.55,61.14,49.97,111.15,112.8,111.7,63.07.77,114.71-48.19,115.5-109.34C228.86,50.84,178.34.8,115.26,0Zm-2.18,215.21c-59.55-.8-107.34-47.92-106.79-105.62C7.12,51.88,55.72,5.56,115.26,6.11c59.55.8,107.34,47.89,106.79,105.59-.83,57.71-49.45,104.03-108.97,103.51Z"/>
      <path d="m187.35,69.61c-.28-.77-1.07-1.56-1.63-2.12-.55-.52-1.38-1.04-1.93-1.32-2.18-1.6-4.63-2.12-7.36-2.12l-123.45-1.32c-2.45,0-4.63.52-6.81,1.6-.55.25-1.38.8-1.93,1.32-.8.52-1.35,1.04-1.9,1.84-2.18,2.39-3.28,5.31-3.28,8.47l-.83,67.77c0,3.19,1.1,6.35,3.01,8.74.55.52,1.38,1.32,1.93,1.84h.28c.52.55,1.07,1.07,1.9,1.32,1.9,1.07,4.36,1.6,6.57,1.6l123.42,1.32c2.73,0,5.46-.8,7.67-2.12.8-.52,1.35-1.04,1.9-1.56h.28c.55-.55,1.1-1.35,1.63-1.87,1.66-2.12,2.45-4.75,2.45-7.67l.83-68.01c0-2.67-.83-5.58-2.73-7.7Zm-134.37-1.84l123.45,1.32c1.1,0,2.45.28,3.56.52l-3.01,2.91-40.16,38.13-18.84,17.73c-1.9,1.84-4.91,1.84-7.09,0l-18.04-18.01-3.56-3.44-39.33-38.9c1.1-.28,1.93-.28,3.01-.28Zm-7.91,80.99c-1.1-1.32-1.63-3.16-1.63-4.76l.8-68.04c0-1.84.55-3.44,1.66-5.03l39.61,39.45-40.43,38.38Zm130.26,4.76l-123.42-1.32c-.83,0-1.66,0-2.73-.24l40.13-37.86,18.04,17.73c1.9,1.84,4.36,2.91,7.09,2.91s5.18-.8,7.39-2.91l18.56-17.73,39.05,38.65c-1.38.52-2.73.77-4.11.77Zm8.74-8.19c0,1.32-.28,2.64-1.07,3.96l-38.78-38.62,39.57-37.58c.55,1.32,1.1,2.88,1.1,4.23l-.83,68.01Z"/>
    </g>
  </g>
</svg>