<?xml version="1.0" encoding="UTF-8"?>
<svg id="Capa_2" data-name="Capa 2" xmlns="http://www.w3.org/2000/svg" viewBox="0 0 229.29 222.21">
  <g id="Capa_1-2" data-name="Capa 1">
    <g>
      <path d="m115.75,0C52.63-.8.57,48.61.01,110.05c-.84,61.41,50.14,111.62,113.54,112.15,63.08.8,115.18-48.6,115.74-109.76C230.09,51.02,179.11.54,115.75,0Zm-2.2,216.06c-59.8-.53-108.03-48.07-107.19-106.02C6.88,52.07,55.94,5.36,115.75,6.14c59.8.56,108.03,48.07,107.19,106.05-.56,58.22-49.59,104.69-109.39,103.88Z"/>
      <path d="m177.74,136.87c-35.91-24.11-36.58,11.1-46.6,4.4-16.97-6.3-57.9-36.95-43.37-48.38,1.33-1.04,2.58-2.18,3.64-3.48,7.24-8.95,2.34-13.73-3.33-27.89-4.34-13.63-10.73-21.22-21.83-19.78-4.57.59-8.82,2.63-12.23,5.64-60.36,53.41,102.21,181.71,132.77,114.02,4.36-9.65-.12-18.53-9.05-24.53Z"/>
    </g>
  </g>
</svg>