<?xml version="1.0" encoding="UTF-8"?>
<svg id="Capa_2" data-name="Capa 2" xmlns="http://www.w3.org/2000/svg" viewBox="0 0 228.34 221.05">
  <g id="Capa_1-2" data-name="Capa 1">
    <g>
      <path d="m115.28,0C52.44-.55.83,48.42,0,109.33c-.55,61.15,49.98,111.19,112.82,111.71,63.08.8,114.72-48.17,115.52-109.35C228.89,50.81,178.36.77,115.28,0Zm-2.18,214.93c-59.55-.52-107.36-47.9-106.8-105.36C7.12,51.89,55.72,5.56,115.28,6.08c59.55.52,107.36,47.93,106.8,105.61-.83,57.71-49.46,104.04-108.98,103.25Z"/>
      <path d="m170.17,72.54l-2.18-2.91c-1.1-1.35-2.45-2.91-3.56-4.23-1.07-.8-1.9-1.87-2.73-2.67-1.9-1.56-3.8-3.44-5.74-4.76-1.07-.8-2.18-1.6-3.28-2.12-.52-.52-1.07-.8-1.35-1.07-10.65-6.6-23.23-10.31-36.05-10.59h-.55c-21.02,0-40.41,8.74-53.54,24.36l-2.18,2.64c-8.47,11.14-13.1,24.88-13.38,38.66,0,13.78,4.36,27.52,12.55,38.9l1.93,2.67c8.99,10.83,20.74,18.78,34.12,22.77,6.01,1.56,12.3,2.64,18.87,2.64h.55c4.63,0,8.99-.28,13.38-1.07,1.9-.25,3.8-.77,5.74-1.32.52,0,1.07-.25,1.63-.52,1.1-.28,2.18-.52,3.28-1.04.55-.28,1.35-.55,2.18-.8,4.63-1.87,9.02-3.99,13.1-6.9q.28,0,.55-.25c2.45-1.6,4.94-3.71,7.39-5.83,1.07-.8,2.18-1.84,3.01-2.91l.8-.8c.83-1.04,1.66-1.84,2.45-2.91l2.21-2.64c8.47-11.11,13.1-24.61,13.38-38.66,0-13.75-4.39-27.52-12.58-38.63Zm-100.51-3.19l.28-.28c.55-.52.83-.8,1.11-1.32q.28,0,.55-.25c.25-.28.52-.55.8-.8,0,0,.28-.28.55-.55.28,0,.55-.25.55-.52.28-.25.55-.25.55-.52.28,0,.55-.28.8-.52q.28-.28.55-.55c.28,0,.55-.25.83-.52.28,0,.28-.25.55-.25.28-.28.55-.55.8-.55,0-.24.28-.52.55-.52.28-.28.55-.28.83-.52,0-.28.28-.28.55-.52.28,0,.55-.28.8-.28,0-.28.28-.28.55-.52.28-.28.55-.28.83-.55,0,0,.28-.25.55-.25.28-.28.55-.28.8-.52.28,0,.28-.28.55-.28.28-.28.55-.28.83-.52.28,0,.55-.28.83-.28.28-.28.52-.28.8-.52,0,0,.28-.28.55-.28s.55-.28.83-.52c.28,0,.55,0,.55-.28.55,0,.8-.24,1.07-.24q.28-.28.55-.28c.55-.28.83-.52,1.38-.52-4.94,5.03-9.3,11.63-12.58,19.85-3.56-1.6-6.57-3.19-9.54-5.03.25-.28.52-.52.8-.8Zm-5.19,5.83c3.56,2.36,7.36,4.48,11.75,6.08-2.73,7.95-4.11,16.69-4.63,25.44h-18.87c.83-11.38,4.91-22.24,11.75-31.51Zm-11.75,38.11l18.87.28c.25,8.74,1.63,17.46,3.8,25.4-4.08,1.6-8.19,3.71-11.75,5.83-6.81-9.27-10.37-20.13-10.92-31.51Zm35.53,51.64c0-.28-.28-.28-.55-.28-.28-.28-.55-.28-.83-.52-.28,0-.55-.28-.55-.28-.28-.25-.55-.25-.8-.52-.28,0-.55-.28-.83-.28-.28-.24-.55-.24-.83-.52,0,0-.28-.28-.55-.28-.28-.25-.52-.25-.8-.52-.28,0-.28-.24-.55-.24-.28-.28-.55-.28-.83-.55-.28,0-.55-.25-.55-.25-.28-.28-.52-.55-.8-.55-.28-.24-.55-.24-.55-.52-.28,0-.55-.25-.83-.52-.28,0-.55-.28-.55-.28-.28-.25-.52-.52-.8-.52q-.28-.28-.55-.52c-.28-.28-.55-.28-.83-.52q-.28-.28-.55-.55c-.28,0-.52-.25-.8-.52,0-.28-.28-.28-.55-.52,0,0-.28-.28-.55-.55-.28-.25-.55-.25-.55-.52-.28-.25-.55-.25-.83-.52q-.25-.28-.52-.52c-.28-.28-.55-.55-.83-.8,0-.28-.28-.28-.28-.28-.28-.52-.83-.8-1.1-1.32q-.25,0-.25-.28l-.83-.77c3.01-1.87,6.01-3.47,9.54-4.79,3.01,7.95,7.39,14.82,12.3,20.13-.55-.28-1.1-.52-1.63-.52Zm21.85,5.03c-10.65-1.87-20.22-11.66-25.96-27,7.92-2.39,16.94-3.71,26.23-3.99l-.28,30.99Zm.28-37.62c-9.85.28-19.67,1.6-28.41,4.51-2.18-7.39-3.28-15.34-3.56-23.29l32.25.28-.28,18.5Zm.55-25.13l-32.25-.28c.28-8.19,1.63-15.86,3.84-23.29,8.71,2.91,18.56,4.76,28.41,5.03v18.53Zm.25-25.16c-9.27-.25-18.29-1.84-26.48-4.51,6.29-15.06,16.11-24.88,26.75-26.45l-.28,30.96Zm53.54-5.83c6.57,9.54,10.4,20.13,10.92,31.79l-18.84-.28c-.28-8.99-1.63-17.73-3.84-25.68,4.11-1.6,8.22-3.44,11.75-5.83Zm-24.85-19.85c.28,0,.55,0,.55.28.55,0,.83.25,1.1.25q.25.28.52.55c.28,0,.55.25.83.25.28.28.55.28.83.28.28.28.55.52.8.52,0,.28.28.28.55.28.28.28.55.52.83.52q.28.28.55.52c.28,0,.55.28.8.28.28.28.55.28.55.52.28,0,.55.28.83.55.28,0,.55.25.55.25.28.28.55.52.83.52q.28.28.52.55c.28,0,.55.24.83.52.28,0,.28.28.55.28.28.25.55.52.8.77,0,0,.28.28.55.28.28.28.55.52.55.52.28.28.55.55.55.55.28.25.55.52.83.52.28.25.28.52.55.52.25.28.52.52.8.8,0,0,.28.28.55.28.28.25.55.77.83,1.04l.28.28c.28.25.8.8,1.07,1.04,0,.28.28.28.28.28l.83.8c-3.01,1.84-6.01,3.44-9.57,5.03-3.28-8.22-7.36-15.1-12.27-20.13.52,0,1.07.28,1.35.52Zm-21.57-5.28c10.65,2.12,20.22,11.9,25.96,27-8.19,2.36-16.94,3.96-26.23,3.96l.28-30.96Zm-.55,37.59c10.09,0,19.94-1.6,28.69-4.23,2.18,7.15,3.28,15.1,3.56,23.29l-32.25-.52v-18.53Zm-.28,25.16l32.25.52c-.28,7.95-1.66,15.86-3.84,23.01-8.74-2.91-18.56-4.48-28.41-5.03v-18.5Zm-.55,56.12l.28-30.99c9.3.52,18.32,2.12,26.51,4.76-6.29,14.85-16.11,24.64-26.79,26.23Zm41.79-18.01s-.25,0-.25.28c-.55.24-.83.77-1.38,1.04q0,.28-.28.28c-.28.24-.55.52-.83.8q-.25.25-.52.52c-.28.25-.55.52-.83.52,0,.28-.28.52-.55.52,0,.28-.28.55-.55.55-.28.25-.55.52-.55.52-.28.28-.52.52-.8.52q-.28.28-.55.52c-.28.28-.55.28-.83.55,0,0-.28.25-.52.52-.28,0-.55.28-.83.28,0,.25-.28.52-.55.52-.28.24-.55.24-.83.52,0,0-.28.28-.55.28-.28.25-.52.52-.8.52q-.28.28-.55.52c-.28,0-.55.28-.83.28-.28.25-.55.25-.55.52-.28,0-.52.28-.8.28-.28.24-.55.24-.83.52-.28,0-.55.28-.83.28,0,.25-.28.25-.55.25-.25.28-.52.28-.8.52-.28,0-.55.28-.55.28-.55.28-.83.28-1.1.52q-.28,0-.52.28c-.55,0-.83.28-1.38.52,4.91-5.28,9.3-11.91,12.58-19.85,3.53,1.32,6.54,3.19,9.54,5.03-.28.28-.55.52-.83.8Zm5.22-6.11c-3.56-2.36-7.39-4.23-11.75-6.08,2.73-7.95,4.08-16.69,4.36-25.4l19.11.25c-.8,11.38-4.91,22-11.72,31.23Z"/>
    </g>
  </g>
</svg>