<?xml version="1.0" encoding="UTF-8"?>
<svg id="Capa_2" data-name="Capa 2" xmlns="http://www.w3.org/2000/svg" viewBox="0 0 227.99 220.95">
  <defs>
    <style>
      .cls-1 {
        fill-rule: evenodd;
      }
    </style>
  </defs>
  <g id="Capa_1-2" data-name="Capa 1">
    <path d="m115.09,0C52.33-.79.56,48.33.01,109.43c-.83,61.06,49.86,110.99,112.89,111.51,62.73.8,114.53-48.32,115.08-109.14C228.79,50.73,178.09.53,115.09,0Zm-2.19,214.83c-59.46-.52-107.42-47.8-106.59-105.42C6.84,51.78,55.63,5.33,115.09,6.1c59.46.55,107.42,47.8,106.59,105.45-.55,57.89-49.31,104.09-108.77,103.29Z"/>
    <g>
      <path d="m44.71,179.54l9.94-37.08c-5.63-10.15-8.59-21.53-8.59-33.07,0-37.75,30.71-68.46,68.46-68.46s68.46,30.71,68.46,68.46-30.71,68.46-68.46,68.46c-11.33,0-22.53-2.86-32.54-8.3l-37.27,9.98Zm39.12-23.88l2.35,1.4c8.62,5.13,18.42,7.85,28.34,7.85,30.61,0,55.52-24.91,55.52-55.52s-24.91-55.52-55.52-55.52-55.52,24.91-55.52,55.52c0,10.11,2.81,20.06,8.12,28.79l1.44,2.36-5.55,20.7,20.82-5.58Z"/>
      <path class="cls-1" d="m139.99,118.91c-2.82-1.69-6.49-3.57-9.8-2.21-2.55,1.04-4.17,5.03-5.82,7.06-.85,1.05-1.86,1.21-3.16.68-9.56-3.81-16.89-10.19-22.16-18.98-.89-1.37-.73-2.44.34-3.71,1.59-1.88,3.6-4.01,4.03-6.54.43-2.53-.75-5.48-1.8-7.74-1.34-2.88-2.83-6.98-5.71-8.61-2.65-1.5-6.14-.66-8.5,1.26-4.07,3.32-6.04,8.52-5.98,13.67.02,1.46.2,2.92.54,4.34.82,3.4,2.39,6.57,4.16,9.59,1.33,2.28,2.78,4.48,4.34,6.61,5.11,6.95,11.48,12.98,18.84,17.49,3.68,2.25,7.65,4.23,11.75,5.59,4.6,1.52,8.71,3.1,13.68,2.16,5.2-.99,10.34-4.21,12.4-9.23.61-1.49.92-3.14.58-4.71-.71-3.24-5.1-5.17-7.72-6.74Z"/>
    </g>
  </g>
</svg>